<?xml version="1.0" encoding="UTF-8"?>
<svg id="Layer_1" xmlns="http://www.w3.org/2000/svg" version="1.1" viewBox="0 0 409.3669434 409.3288574">
  <!-- Generator: Adobe Illustrator 29.8.1, SVG Export Plug-In . SVG Version: 2.1.1 Build 2)  -->
  <defs>
    <style>
      .st0 {
        fill: #fff;
      }
    </style>
  </defs>
  <path class="st0" d="M376.6730957,171.973877h-93.0620117l65.8068848-65.8010254c12.7668457-12.7653809,12.7668457-33.4638672,0-46.2294922-12.7670898-12.765625-33.4680176-12.765625-46.2341309,0l-65.8068848,65.8005371V32.6904297c0-18.0559082-14.6359863-32.6904297-32.6940918-32.6904297-18.0568848,0-32.6928711,14.6345215-32.6928711,32.6904297v93.0534668L106.1828613,59.9433594c-12.7666016-12.765625-33.467041-12.765625-46.2338867,0s-12.7668457,33.4641113,0,46.2294922l65.8071289,65.8010254H32.6936035c-18.0578613,0-32.6936035,14.6350098-32.6936035,32.6911621,0,18.0559082,14.6357422,32.6899414,32.6936035,32.6899414h93.0625l-65.8071289,65.8010254c-12.7668457,12.7658691-12.7668457,33.4638672,0,46.2299805,6.3862305,6.3859863,14.7502441,9.572998,23.119873,9.572998,8.3693848,0,16.7336426-3.1931152,23.1201172-9.572998l98.4938965-98.4909668,98.5009766,98.4958496c6.3862305,6.3859863,14.75,9.572998,23.1191406,9.572998,8.3701172,0,16.7338867-3.1918945,23.1201172-9.572998,12.7668457-12.7648926,12.7668457-33.4638672,0-46.2299805l-65.8061523-65.8000488-.0058594-.0058594h93.0620117c18.0578613,0,32.6938477-14.6340332,32.6938477-32.6899414,0-18.0561523-14.6359863-32.6911621-32.6938477-32.6911621Z"/>
  <path class="st0" d="M204.6828613,314.7009277c-18.0568848,0-32.6928711,14.6350098-32.6928711,32.690918v29.2470703c0,18.0559082,14.6359863,32.6899414,32.6928711,32.6899414,18.0581055,0,32.6940918-14.6340332,32.6940918-32.6899414v-29.2470703c0-18.0559082-14.6359863-32.690918-32.6940918-32.690918Z"/>
</svg>