<?xml version="1.0" encoding="UTF-8"?>
<svg id="Layer_1" xmlns="http://www.w3.org/2000/svg" version="1.1" viewBox="0 0 409.3669434 409.3288574">
  <!-- Generator: Adobe Illustrator 29.8.1, SVG Export Plug-In . SVG Version: 2.1.1 Build 2)  -->
  <defs>
    <style>
      .st0 {
        fill: #95ecbf;
      }

      .st1 {
        fill: #89a09c;
      }

      .st2 {
        fill: #92f8a9;
      }

      .st3 {
        fill: #64ddb1;
      }

      .st4 {
        fill: #5cccba;
      }
    </style>
  </defs>
  <path class="st2" d="M237.3769684,125.743927V32.6905251C237.3769684,14.6344223,222.7409668-.0000763,204.6829681-.0000763,186.6259766-.0000763,171.989975,14.6344233,171.989975,32.6905251v93.0534019l32.6929932,32.6909943,32.6940002-32.6909943Z"/>
  <path class="st1" d="M376.6729736,171.9739227h-93.0620117l-32.693985,32.6909943,32.693985,32.6900024h93.0620117c18.0579834,0,32.6940002-14.6340027,32.6940002-32.6900024s-14.6360168-32.6909943-32.6940002-32.6909943Z"/>
  <path class="st1" d="M125.7559662,171.9739227H32.69347C14.635767,171.9739227-.0000305,186.6089172-.0000305,204.664917s14.6358004,32.6900024,32.6935005,32.6900024h93.0624962l32.6930084-32.6900024-32.6930084-32.6909943Z"/>
  <path class="st1" d="M125.7559662,237.3549194l-65.8069992,65.8010101c-12.7667999,12.7659912-12.7667999,33.4639893,0,46.2299805,6.3862,6.3860168,14.7503052,9.5730286,23.1197968,9.5730286,8.3695984,0,16.733696-3.1930237,23.1202011-9.5730286l65.8059998-65.8009949v-46.2299957h-46.2389984Z"/>
  <path class="st2" d="M283.6109619,171.9739227l65.8070068-65.8010025c12.7659912-12.7653961,12.7659912-33.4638977,0-46.2295952-12.7669983-12.7657013-33.4679871-12.7657013-46.2340088,0l-65.8069916,65.800602v46.2299957h46.2339935Z"/>
  <path class="st0" d="M218.2239685,171.9739227h19.1529999v-46.2299957l-32.6940002,32.6909943,13.5410004,13.5390015Z"/>
  <path class="st0" d="M191.1429749,237.3549194h-19.1529999v46.2299957l32.6929932-32.6899872-13.5399933-13.5400085Z"/>
  <path class="st0" d="M237.3769684,191.1249237l13.5400085,13.5399933,32.6940155-32.6909943h-46.2339935v19.151001h-.0000305Z"/>
  <path class="st0" d="M171.989975,218.2089233l-13.5410004-13.5440063-32.6930084,32.6900024h46.2340088v-19.1459961Z"/>
  <path class="st3" d="M237.3769684,171.9739227h-19.1529999l19.1529999,19.151001v-19.151001Z"/>
  <path class="st3" d="M171.989975,237.3549194h19.1529999l-19.1529999-19.1459961v19.1459961Z"/>
  <path class="st2" d="M171.989975,125.743927L106.1829681,59.943325c-12.7667007-12.7657013-33.4672012-12.7657013-46.2339973,0-12.7667999,12.7656898-12.7667999,33.4641914,0,46.2295876l65.8069954,65.8010101h46.2340088v-46.2299957h-.0000153.0000153Z"/>
  <path class="st1" d="M237.3769684,283.5909271l65.8070221,65.7999878c6.3860168,6.3860168,14.75,9.572998,23.1190186,9.572998,8.3699951,0,16.7339783-3.1919861,23.1199951-9.572998,12.7669983-12.7649841,12.7669983-33.4639893,0-46.2299805l-65.8070068-65.8000183h-46.2339935v46.230011h-.0050354Z"/>
  <path class="st0" d="M191.1429749,171.9739227l13.5399933-13.5390015-32.6929932-32.6909943v46.2299957h19.1529999Z"/>
  <path class="st0" d="M218.2239685,237.3549194l-13.5410004,13.5400085,32.6940002,32.6959991v-46.2360077h-19.1529999Z"/>
  <path class="st0" d="M237.3769684,218.2039185v19.151001h46.234024l-32.693985-32.6900024-13.5400085,13.5390015h-.0000305Z"/>
  <path class="st0" d="M171.989975,191.1249237v-19.151001h-46.2340088l32.6930084,32.6909943,13.5410004-13.5399933Z"/>
  <path class="st3" d="M171.989975,171.9739227v19.151001l19.1529999-19.151001h-19.1529999Z"/>
  <path class="st3" d="M237.3769684,237.3549194v-19.151001l-19.1529999,19.151001h19.1529999Z"/>
  <path class="st4" d="M204.6829681,158.4349213l-13.5399933,13.5390015h27.0809937l-13.5410004-13.5390015Z"/>
  <path class="st4" d="M204.6829681,250.894928l13.5410004-13.5400085h-27.0809937l13.5399933,13.5400085Z"/>
  <path class="st4" d="M158.4489746,204.664917l13.5410004,13.5450134v-27.0850067l-13.5410004,13.5399933Z"/>
  <path class="st4" d="M237.3769684,218.2039185l13.5400085-13.5390015-13.5400085-13.5399933v27.0789948Z"/>
  <path class="st4" d="M218.2239685,171.9739227h-27.0809937l-19.1529999,19.151001v27.0839996l19.1529999,19.1459961h27.0809937l19.1529999-19.151001v-27.0789948l-19.1529999-19.151001Z"/>
  <path class="st1" d="M171.989975,376.6389313c0,18.0559998,14.6360016,32.6900024,32.6929932,32.6900024,18.0579987,0,32.6940002-14.6340027,32.6940002-32.6900024v-29.2470093c0-18.0559998-14.6360016-32.6910095-32.6940002-32.6910095-18.0569916,0-32.6929932,14.6350098-32.6929932,32.6910095v29.2470093Z"/>
</svg>